<svg width="498" height="96" viewBox="0 0 498 96" fill="none" xmlns="http://www.w3.org/2000/svg">
<mask id="mask0_807_1429" style="mask-type:alpha" maskUnits="userSpaceOnUse" x="0" y="0" width="498" height="96">
<path d="M0 0.5H498V95.5H0V0.5Z" fill="url(#paint0_linear_807_1429)" fill-opacity="0.58"/>
</mask>
<g mask="url(#mask0_807_1429)">
<path d="M155.724 -17.0924C145.636 -5.71305 135.636 5.55697 125.581 16.8926C125.275 16.5209 125.034 16.2476 124.815 15.9634C118.874 8.59583 111.544 3.22863 102.397 0.539569C92.069 -2.51022 81.9376 -2.06204 72.1673 2.63835C63.0425 7.03268 56.5435 14.0614 52.3094 23.2108C49.5413 29.2011 47.9658 35.5083 48.0424 42.1326C48.1955 55.414 53.3816 66.4435 63.3488 75.1775C69.3007 80.3916 76.2592 83.6382 84.1039 84.7422C95.6467 86.371 106.073 83.5945 115.308 76.4346C118.316 74.0953 120.986 71.4172 123.415 68.4876C149.455 36.9184 175.483 5.33834 201.523 -26.2308C210.538 -37.162 219.576 -48.0931 228.602 -59.0134C228.996 -59.4834 229.401 -59.9534 229.871 -60.5C230.396 -60.0737 230.878 -59.702 231.348 -59.3085C245.309 -47.8308 259.269 -36.3531 273.23 -24.8754C279.171 -19.9891 285.047 -15.0373 291.042 -10.2167C296.961 -5.46164 301.392 0.408391 304.664 7.19664C307.979 14.0833 309.992 21.3525 310.703 28.9715C311.36 35.9346 310.999 42.8213 308.898 49.5221C305.758 59.5678 300.517 68.3127 292.432 75.2103C285.714 80.9491 277.913 84.4471 269.27 86.1196C265.648 86.8192 261.983 87.1471 258.296 87.2127C257.355 87.2345 256.403 87.2892 255.331 87.3439C251.261 110.682 247.202 133.976 243.099 157.5C242.683 157.183 242.409 156.986 242.158 156.779C230.878 147.553 219.586 138.327 208.306 129.09C207.267 128.237 206.227 127.363 205.166 126.543C204.718 126.193 204.543 125.843 204.641 125.242C206.217 116.355 207.77 107.457 209.313 98.5592C210.473 91.8912 211.687 85.2232 212.759 78.5443C213.109 76.3362 212.573 74.2702 210.735 72.7289C204.597 67.5803 198.459 62.4208 192.234 57.1848C191.829 57.6548 191.49 58.0265 191.173 58.4091C185.188 65.7111 179.225 73.024 173.229 80.3151C166.796 88.1418 160.297 95.9139 153.218 103.172C140.57 116.137 125.439 124.707 107.671 128.489C99.4213 130.238 91.0734 130.784 82.6707 130.03C62.1781 128.205 44.3115 120.389 29.3442 106.222C17.8342 95.3236 10.0989 82.0969 5.59125 66.9354C2.76846 57.4362 1.57589 47.7294 2.13389 37.8695C3.40304 15.7011 11.5322 -3.61427 26.9262 -19.6721C39.6068 -32.9098 55.0665 -41.283 73.0754 -44.9012C80.4059 -46.3769 87.8129 -46.8361 95.2638 -46.3332C110.592 -45.3057 124.695 -40.5397 137.638 -32.2976C141.511 -29.8272 145.22 -27.1163 148.798 -24.2414C151.38 -22.1754 153.404 -19.5847 155.724 -17.0924ZM217.683 23.6371C217.923 23.8557 218.088 24.0088 218.252 24.1509C222.147 27.3865 226.02 30.633 229.937 33.8577C232.639 36.0767 235.32 38.3286 238.11 40.4273C242.508 43.7395 247.464 45.2917 252.978 44.5156C262.891 43.1164 269.423 33.3112 267.005 23.5715C265.922 19.1772 263.558 15.559 260.123 12.6731C253.679 7.26223 247.169 1.92783 240.692 -3.42844C240.56 -3.53775 240.418 -3.61427 240.232 -3.73452C232.705 5.40393 225.232 14.4768 217.683 23.6371Z" stroke="#0FF4C6" stroke-opacity="0.5" stroke-miterlimit="10"/>
</g>
<defs>
<linearGradient id="paint0_linear_807_1429" x1="281.033" y1="0.500003" x2="245.184" y2="116.01" gradientUnits="userSpaceOnUse">
<stop stop-opacity="0"/>
<stop offset="1"/>
</linearGradient>
</defs>
</svg>
