<svg width="90" height="69" viewBox="0 0 90 69" fill="none" xmlns="http://www.w3.org/2000/svg">
<path d="M69.9114 66.0461C69.7729 65.9387 69.6817 65.8723 69.5968 65.8028C66.083 62.9144 62.5692 60.0261 59.0523 57.1441C58.8762 56.9987 58.8258 56.8691 58.8667 56.6385C59.2631 54.4106 59.6406 52.1795 60.0275 49.9517C60.3515 48.0872 60.6818 46.2196 61.009 44.3551C61.075 43.9727 61.1631 43.5904 61.1946 43.2017C61.2449 42.5728 61.1285 41.9882 60.6095 41.5489C58.8416 40.0605 57.0768 38.5689 55.2837 37.0521C55.1736 37.1785 55.0856 37.2733 55.0006 37.3776C53.5599 39.1441 52.116 40.9137 50.6784 42.6834C48.6148 45.221 46.5386 47.7459 44.2832 50.116C40.8323 53.7438 36.7114 56.2371 31.8513 57.4569C29.3504 58.0826 26.815 58.3102 24.2418 58.1395C19.3596 57.8172 14.9179 56.2434 10.9605 53.3519C6.42441 50.037 3.39508 45.6286 1.71212 40.2691C0.812439 37.4123 0.425516 34.4892 0.592239 31.5061C0.963434 24.9236 3.40766 19.2259 8.03187 14.5268C11.511 10.9906 15.7043 8.71218 20.5361 7.64091C22.801 7.13845 25.1006 6.97728 27.4127 7.13529C32.1218 7.46078 36.4157 9.00607 40.307 11.6764C41.0682 12.1978 41.798 12.7698 42.5404 13.3196C43.3929 13.9517 44.0472 14.7764 44.777 15.5886C41.8893 18.8593 39.0046 22.1237 36.1074 25.4071C36.0193 25.3028 35.9501 25.2238 35.8872 25.1416C34.1728 22.9991 32.0526 21.4474 29.4102 20.6701C26.4501 19.7979 23.5434 19.9306 20.7437 21.2831C18.1359 22.544 16.2737 24.5538 15.0531 27.1704C14.2384 28.9179 13.776 30.7603 13.798 32.6974C13.842 36.537 15.3299 39.7255 18.1988 42.2505C19.9101 43.7578 21.9139 44.6964 24.1694 45.0156C27.4882 45.4864 30.4923 44.6869 33.1473 42.617C34.0218 41.9345 34.7957 41.1539 35.4972 40.2975C44.8746 28.8705 54.2519 17.4467 63.6293 6.01977C64.3434 5.15074 65.0606 4.28487 65.7779 3.41899C65.8785 3.29891 65.9823 3.18199 66.105 3.03662C66.2466 3.15039 66.3756 3.25151 66.5014 3.35895C69.8075 6.08613 73.1137 8.81331 76.4167 11.5436C78.8137 13.525 81.1856 15.5349 83.6047 17.4878C85.6274 19.1216 87.0618 21.1662 88.0433 23.5552C88.9398 25.7389 89.4022 28.0173 89.4431 30.3811C89.4998 33.5696 88.5718 36.4675 86.8511 39.1125C84.5924 42.5823 81.3995 44.6616 77.351 45.4327C76.3695 45.6191 75.3786 45.7076 74.3814 45.7329C74.0794 45.7392 73.7743 45.755 73.4314 45.7708C72.2612 52.5177 71.091 59.2582 69.9114 66.0461ZM62.6038 27.36C62.6793 27.4264 62.7234 27.4706 62.7706 27.5085C63.8747 28.4313 64.9757 29.3572 66.083 30.2736C66.8757 30.9278 67.6622 31.5946 68.4832 32.2139C69.7478 33.1715 71.1759 33.6202 72.7614 33.3927C75.6145 32.9819 77.4862 30.1536 76.791 27.3347C76.4765 26.0644 75.797 25.0184 74.8092 24.1841C73.1105 22.7462 71.393 21.3337 69.6817 19.9085C69.4961 19.7536 69.3105 19.6051 69.0998 19.4313C66.9324 22.0763 64.7775 24.7055 62.6038 27.36Z" fill="white"/>
<path d="M35.1857 26.8513C33.0813 24.557 30.4923 23.2898 27.3875 23.1824C24.8929 23.0971 22.6343 23.827 20.6211 25.3091C16.6889 28.2006 14.8392 33.9173 17.4628 39.0746C15.5439 36.9257 14.3611 32.9029 15.6194 29.0191C17.0381 24.6423 20.9954 21.7319 25.3491 21.5138C30.3634 21.2673 33.8834 24.3643 35.1857 26.8513Z" fill="white"/>
<path d="M73.9002 8.17837C72.5633 7.07549 71.2295 5.97578 69.8925 4.8729C68.565 3.77634 67.2376 2.68294 65.8723 1.55794C62.9468 5.05618 60.0433 8.55127 57.0895 12.0874C57.0737 11.9484 57.0611 11.8694 57.0611 11.7935C57.058 11.3733 57.0706 10.9498 57.0549 10.5295C57.0486 10.3241 57.1146 10.1724 57.2436 10.0207C59.5085 7.32514 61.7703 4.62325 64.0321 1.92451C64.5637 1.28933 65.0985 0.650983 65.6427 0C65.7087 0.0442416 65.7716 0.0726826 65.8251 0.116924C68.4895 2.31952 71.1508 4.52212 73.8153 6.72156C73.9379 6.82269 74.004 6.92381 73.9946 7.0913C73.9757 7.44523 73.9757 7.79916 73.9694 8.15309C73.9474 8.16257 73.9254 8.16889 73.9002 8.17837Z" fill="white"/>
<path d="M45.5727 16.6001C45.5979 16.815 45.6136 16.9477 45.6325 17.0773C45.6671 17.349 45.6986 17.6208 45.7426 17.8894C45.7772 18.0917 45.7206 18.2434 45.5853 18.4014C44.3711 19.795 43.1694 21.2044 41.9552 22.598C40.8793 23.8336 39.7846 25.0534 38.7088 26.289C38.5578 26.4597 38.4194 26.5197 38.196 26.466C37.8815 26.3901 37.5606 26.3554 37.1831 26.2922C37.8877 25.4484 38.6081 24.6773 39.2939 23.881C39.9859 23.0752 40.6811 22.2725 41.3732 21.4698C42.0653 20.6672 42.7605 19.8613 43.4525 19.0587C44.1383 18.2592 44.8304 17.4596 45.5727 16.6001Z" fill="white"/>
<path d="M69.842 67.3923C69.4174 67.3923 69.065 67.4081 68.7159 67.3828C68.6089 67.3765 68.4988 67.2659 68.4044 67.1869C67.1367 66.0998 65.8816 64.997 64.6013 63.9257C62.717 62.3488 60.817 60.7877 58.9169 59.2329C58.6653 59.0275 58.4986 58.8095 58.4545 58.4871C58.4262 58.2722 58.3633 58.0605 58.3381 57.8267C62.2388 60.9141 66.0074 64.1437 69.842 67.3923Z" fill="white"/>
<path d="M7.49406 63.338C7.49406 63.5402 7.49406 63.7362 7.49406 63.9574C7.2833 63.9574 7.10084 63.9574 6.89323 63.9574C6.89323 63.5813 6.89323 63.2084 6.89323 62.8134C6.9467 62.8039 7.00647 62.7818 7.0631 62.785C7.80863 62.785 8.55102 62.7881 9.29656 62.7976C9.65831 62.8039 10.0043 62.8861 10.3252 63.0504C11.0267 63.4044 11.3413 63.989 11.335 64.7664C11.3287 65.5343 11.0015 66.0999 10.3126 66.4412C10.2371 66.4791 10.1616 66.5107 10.0547 66.5613C10.5045 67.1965 10.9418 67.819 11.4199 68.4953C11.1871 68.4985 11.0047 68.5174 10.8254 68.4953C10.753 68.4858 10.6775 68.3879 10.6272 68.3183C10.2843 67.8412 9.94143 67.3608 9.60798 66.8773C9.51047 66.7351 9.4098 66.6782 9.22106 66.6877C8.77122 66.713 8.32138 66.7004 7.8684 66.7035C7.75515 66.7035 7.64191 66.7035 7.4972 66.7035C7.4972 67.3039 7.4972 67.8791 7.4972 68.4827C7.277 68.4827 7.08826 68.4827 6.88379 68.4827C6.88379 67.2091 6.88379 65.9514 6.88379 64.6621C6.97501 64.6526 7.06624 64.6431 7.15432 64.64C7.24869 64.6368 7.33992 64.64 7.47518 64.64C7.5035 65.1456 7.47204 65.6386 7.49091 66.1126C7.52237 66.1379 7.5381 66.16 7.55697 66.16C8.17353 66.16 8.79324 66.1631 9.4098 66.1473C9.56394 66.1442 9.71808 66.0905 9.86593 66.0367C10.4353 65.8282 10.7342 65.3699 10.7279 64.7411C10.7216 64.0901 10.4133 63.635 9.82504 63.4454C9.61742 63.3791 9.39722 63.3348 9.18017 63.3254C8.66741 63.3096 8.15151 63.319 7.63876 63.319C7.60101 63.3127 7.56012 63.3254 7.49406 63.338Z" fill="white"/>
<path d="M33.5782 62.8043C33.6443 62.7949 33.6946 62.7822 33.7449 62.7822C34.4873 62.7854 35.2328 62.7822 35.9752 62.7949C36.3464 62.8012 36.7019 62.8865 37.0322 63.0572C37.6393 63.3732 37.9665 63.8756 38.0168 64.5645C38.1143 65.9329 37.2052 66.5428 36.2961 66.647C35.7362 66.7102 35.1668 66.6913 34.6037 66.7071C34.4716 66.7102 34.3363 66.7071 34.1759 66.7071C34.1759 66.9441 34.1759 67.1495 34.1759 67.3834C33.9683 67.3834 33.7858 67.3834 33.6034 67.3834C33.5404 67.1716 33.5153 63.3985 33.5782 62.8043ZM34.179 66.1572C34.6823 66.1572 35.1511 66.1572 35.6229 66.1572C35.7708 66.1572 35.9155 66.1572 36.0602 66.1414C37.0259 66.0371 37.5261 65.3988 37.3877 64.4539C37.3216 64.002 37.0825 63.6639 36.661 63.5027C36.3842 63.3953 36.0759 63.3384 35.7802 63.3194C35.3209 63.2878 34.8616 63.31 34.3992 63.3131C34.33 63.3131 34.2608 63.3289 34.179 63.3384C34.179 64.2738 34.179 65.1934 34.179 66.1572Z" fill="white"/>
<path d="M49.0551 64.6182C48.8223 64.6182 48.6462 64.6182 48.4511 64.6182C48.2844 64.2484 48.1177 63.8787 47.9447 63.4995C47.7874 63.6733 46.7367 65.9865 46.6014 66.451C47.476 66.451 48.3473 66.451 49.2533 66.451C49.0803 66.0529 48.9198 65.6831 48.7468 65.2755C48.9576 65.2755 49.1369 65.2755 49.3571 65.2755C49.8321 66.3183 50.3165 67.3864 50.8104 68.4735C50.716 68.4861 50.6657 68.4988 50.6154 68.5019C50.4801 68.5051 50.3448 68.5019 50.1844 68.5019C49.9548 67.9932 49.7251 67.4907 49.4924 66.9819C48.4323 66.9819 47.3879 66.9819 46.3309 66.9819C46.1044 67.4812 45.8811 67.9805 45.6514 68.4861C45.4564 68.4861 45.2708 68.4861 45.0852 68.4861C45.1009 68.2523 47.1834 63.5943 47.6364 62.7758C47.7213 62.7758 47.822 62.7727 47.9258 62.7758C48.0202 62.779 48.1114 62.7853 48.2215 62.7885C48.4952 63.3857 48.7626 63.9767 49.0551 64.6182Z" fill="white"/>
<path d="M27.3025 62.7944C28.4003 62.7944 29.4762 62.7944 30.5709 62.7944C30.5709 62.9619 30.5709 63.1136 30.5709 63.3001C29.6901 63.3001 28.8124 63.3001 27.897 63.3001C27.8813 63.9795 27.8907 64.6273 27.8939 65.3194C28.2242 65.3415 28.5451 65.3288 28.8659 65.3288C29.1899 65.332 29.5171 65.3288 29.8411 65.3288C30.162 65.3288 30.486 65.3288 30.8257 65.3288C30.8257 65.5058 30.8257 65.6512 30.8257 65.8345C30.5111 65.8597 30.1903 65.8439 29.8694 65.8471C29.5454 65.8503 29.2182 65.8471 28.8942 65.8471C28.5734 65.8471 28.2494 65.8471 27.9096 65.8471C27.9096 66.5676 27.9096 67.247 27.9096 67.9612C28.7873 67.9612 29.6618 67.9612 30.5646 67.9612C30.5646 68.1445 30.5646 68.2962 30.5646 68.451C30.357 68.5142 27.7177 68.5332 27.3056 68.47C27.3025 66.596 27.3025 64.7158 27.3025 62.7944Z" fill="white"/>
<path d="M56.976 62.8198C56.9225 62.9146 56.8754 63.0062 56.825 63.0947C56.199 64.1281 55.573 65.1614 54.9376 66.1885C54.7992 66.4128 54.7143 66.6309 54.7363 66.8963C54.752 67.0512 54.7394 67.2092 54.7394 67.3893C54.5318 67.3893 54.3525 67.3893 54.126 67.3893C54.126 67.2124 54.1166 67.0354 54.1291 66.8616C54.1449 66.6309 54.082 66.4381 53.9593 66.239C53.3176 65.2025 52.6884 64.1597 52.0561 63.1168C51.9995 63.022 51.9429 62.9241 51.8611 62.7787C52.0215 62.7787 52.1253 62.7882 52.226 62.7756C52.4273 62.7503 52.55 62.8261 52.6538 63.0062C52.896 63.436 53.1603 63.8532 53.4182 64.2766C53.7139 64.7601 54.0065 65.2468 54.3022 65.7303C54.3462 65.7998 54.3965 65.8661 54.4563 65.9546C54.5318 65.8409 54.5947 65.7492 54.6545 65.6544C55.1672 64.8107 55.68 63.9669 56.1927 63.1232C56.4318 62.7282 56.4507 62.7218 56.976 62.8198Z" fill="white"/>
<path d="M16.5063 68.5206C16.5063 68.3563 16.5063 68.1951 16.5063 68.0055C17.1921 67.8981 17.7772 67.6105 18.183 67.0196C18.4881 66.5803 18.614 66.0874 18.5951 65.5565C18.5542 64.3493 17.8653 63.5909 16.5032 63.2654C16.5032 63.1074 16.5032 62.943 16.5032 62.7819C17.7394 62.627 19.1015 63.9543 19.1991 65.3763C19.3469 67.443 17.7269 68.5206 16.5063 68.5206Z" fill="white"/>
<path d="M15.8017 63.2815C14.3924 63.7681 13.8105 64.4823 13.8293 65.699C13.8482 66.8556 14.4616 67.5761 15.808 68.0027C15.808 68.1638 15.808 68.3345 15.808 68.5051C14.3924 68.4388 13.2537 67.2063 13.2191 65.7274C13.1845 64.1631 14.2697 62.9054 15.8017 62.7695C15.8017 62.9339 15.8017 63.095 15.8017 63.2815Z" fill="white"/>
<path d="M25.2705 67.9804C25.2705 68.1605 25.2705 68.3059 25.2705 68.4481C25.0566 68.5176 21.9266 68.5398 21.502 68.4734C21.502 67.0008 21.502 65.5218 21.502 64.0303C21.6938 64.0303 21.8669 64.0303 22.0839 64.0303C22.1091 64.3494 22.0902 64.6718 22.0933 64.991C22.0965 65.3164 22.0933 65.6419 22.0933 65.9706C22.0933 66.2992 22.0933 66.6216 22.0933 66.9502C22.0933 67.2757 22.0933 67.6012 22.0933 67.9615C22.4457 68.0057 22.7854 67.9773 23.1251 67.9836C23.4806 67.9899 23.8361 67.9836 24.1947 67.9836C24.5439 67.9804 24.8867 67.9804 25.2705 67.9804Z" fill="white"/>
<path d="M40.5179 67.9804C41.5969 67.9804 42.6224 67.9804 43.6762 67.9804C43.6762 68.1574 43.6762 68.3154 43.6762 68.4892C42.4242 68.4892 41.1816 68.4892 39.9233 68.4892C39.9233 67.0008 39.9233 65.5345 39.9233 64.0366C40.1089 64.0366 40.2977 64.0366 40.521 64.0366C40.5179 65.3417 40.5179 66.6406 40.5179 67.9804Z" fill="white"/>
<path d="M55.1892 14.2491C55.1892 13.7024 55.1892 13.1557 55.1924 12.609C55.1924 12.5489 55.2018 12.4762 55.2364 12.432C55.4786 12.1318 55.7271 11.8379 56.0071 11.5029C56.0323 11.6104 56.0511 11.6578 56.0511 11.7083C56.0732 12.1602 56.0952 12.6121 56.1109 13.064C56.114 13.143 56.1141 13.2473 56.07 13.3042C55.8058 13.6392 55.5321 13.9615 55.2584 14.2902C55.2364 14.2743 55.2112 14.2617 55.1892 14.2491Z" fill="white"/>
<path d="M74.929 7.64746C75.275 7.93503 75.5959 8.19732 75.9262 8.46909C75.8601 8.85778 75.7941 9.23384 75.7186 9.67625C75.4481 9.45189 75.2153 9.26544 74.9919 9.06951C74.951 9.03475 74.9322 8.95891 74.9322 8.90203C74.9259 8.50385 74.929 8.10568 74.929 7.64746Z" fill="white"/>
<path d="M17.8999 65.0192C17.5791 65.0192 17.2708 65.0192 16.9468 65.0192C16.9468 64.6874 16.9468 64.3651 16.9468 64.0459C17.1261 64.1249 17.6546 64.6621 17.8999 65.0192Z" fill="white"/>
<path d="M14.6536 66.3403C14.9744 66.3403 15.2921 66.3403 15.6319 66.3403C15.6319 66.6627 15.6319 66.9692 15.6319 67.3452C15.267 67.004 14.9461 66.7006 14.6252 66.3972C14.6347 66.3783 14.6441 66.3593 14.6536 66.3403Z" fill="white"/>
<path d="M30.9233 63.294C30.9233 63.1139 30.9233 62.9685 30.9233 62.8042C31.2316 62.8042 31.5273 62.8042 31.8482 62.8042C31.8482 62.9622 31.8482 63.1202 31.8482 63.294C31.5399 63.294 31.2442 63.294 30.9233 63.294Z" fill="white"/>
<path d="M31.8448 67.999C31.8448 68.1633 31.8448 68.3087 31.8448 68.4794C31.5429 68.4794 31.2472 68.4794 30.9294 68.4794C30.9294 68.3245 30.9294 68.1728 30.9294 67.999C31.2283 67.999 31.5177 67.999 31.8448 67.999Z" fill="white"/>
<path d="M21.5051 62.7979C21.7033 62.7979 21.8826 62.7979 22.0808 62.7979C22.0808 62.9906 22.0808 63.1644 22.0808 63.3604C21.8921 63.3604 21.7096 63.3604 21.5051 63.3604C21.5051 63.1771 21.5051 62.9969 21.5051 62.7979Z" fill="white"/>
<path d="M39.9167 62.7944C40.1275 62.7944 40.3037 62.7944 40.4987 62.7944C40.4987 62.9809 40.4987 63.1547 40.4987 63.3569C40.31 63.3569 40.1212 63.3569 39.9167 63.3569C39.9167 63.1705 39.9167 62.9967 39.9167 62.7944Z" fill="white"/>
<path d="M33.575 68.0532C33.7731 68.0532 33.9524 68.0532 34.1506 68.0532C34.1506 68.2017 34.1506 68.3313 34.1506 68.483C33.9587 68.483 33.7794 68.483 33.575 68.483C33.575 68.3471 33.575 68.2175 33.575 68.0532Z" fill="white"/>
<path d="M54.1355 68.483C54.1355 68.3282 54.1355 68.2081 54.1355 68.0596C54.3305 68.0596 54.5193 68.0596 54.7206 68.0596C54.7206 68.2018 54.7206 68.3313 54.7206 68.483C54.5287 68.483 54.3494 68.483 54.1355 68.483Z" fill="white"/>
<path d="M69.2789 20.8759C69.2789 21.2203 69.2915 21.5648 69.2726 21.9061C69.2663 22.0072 69.1814 22.1115 69.1091 22.1968C68.2471 23.227 67.3789 24.254 66.5138 25.2811C66.1961 25.6571 65.8721 26.03 65.5638 26.4155C65.4443 26.5641 65.3059 26.6494 65.1234 26.6842C64.8183 26.7474 64.5163 26.8232 64.1829 26.8485C65.8595 24.8481 67.5393 22.8509 69.216 20.8506C69.238 20.8632 69.2601 20.8695 69.2789 20.8759Z" fill="white"/>
</svg>
