<svg width="498" height="95" viewBox="0 0 498 95" fill="none" xmlns="http://www.w3.org/2000/svg">
<mask id="mask0_618_457" style="mask-type:alpha" maskUnits="userSpaceOnUse" x="0" y="0" width="498" height="95">
<path d="M0 0H498V95H0V0Z" fill="url(#paint0_linear_618_457)" fill-opacity="0.58"/>
</mask>
<g mask="url(#mask0_618_457)">
<path d="M155.724 -17.5924C145.636 -6.21305 135.636 5.05697 125.581 16.3926C125.275 16.0209 125.034 15.7476 124.815 15.4634C118.874 8.09583 111.544 2.72863 102.397 0.0395685C92.069 -3.01022 81.9376 -2.56204 72.1673 2.13835C63.0425 6.53268 56.5435 13.5614 52.3094 22.7108C49.5413 28.7011 47.9658 35.0083 48.0424 41.6326C48.1955 54.914 53.3816 65.9435 63.3488 74.6775C69.3007 79.8916 76.2592 83.1382 84.1039 84.2422C95.6467 85.871 106.073 83.0945 115.308 75.9346C118.316 73.5953 120.986 70.9172 123.415 67.9876C149.455 36.4184 175.483 4.83834 201.523 -26.7308C210.538 -37.662 219.576 -48.5931 228.602 -59.5134C228.996 -59.9834 229.401 -60.4534 229.871 -61C230.396 -60.5737 230.878 -60.202 231.348 -59.8085C245.309 -48.3308 259.269 -36.8531 273.23 -25.3754C279.171 -20.4891 285.047 -15.5373 291.042 -10.7167C296.961 -5.96164 301.392 -0.0916092 304.664 6.69664C307.979 13.5833 309.992 20.8525 310.703 28.4715C311.36 35.4346 310.999 42.3213 308.898 49.0221C305.758 59.0678 300.517 67.8127 292.432 74.7103C285.714 80.4491 277.913 83.9471 269.27 85.6196C265.648 86.3192 261.983 86.6471 258.296 86.7127C257.355 86.7345 256.403 86.7892 255.331 86.8439C251.261 110.182 247.202 133.476 243.099 157C242.683 156.683 242.409 156.486 242.158 156.279C230.878 147.053 219.586 137.827 208.306 128.59C207.267 127.737 206.227 126.863 205.166 126.043C204.718 125.693 204.543 125.343 204.641 124.742C206.217 115.855 207.77 106.957 209.313 98.0592C210.473 91.3912 211.687 84.7232 212.759 78.0443C213.109 75.8362 212.573 73.7702 210.735 72.2289C204.597 67.0803 198.459 61.9208 192.234 56.6848C191.829 57.1548 191.49 57.5265 191.173 57.9091C185.188 65.2111 179.225 72.524 173.229 79.8151C166.796 87.6418 160.297 95.4139 153.218 102.672C140.57 115.637 125.439 124.207 107.671 127.989C99.4213 129.738 91.0734 130.284 82.6707 129.53C62.1781 127.705 44.3115 119.889 29.3442 105.722C17.8342 94.8236 10.0989 81.5969 5.59125 66.4354C2.76846 56.9362 1.57589 47.2294 2.13389 37.3695C3.40304 15.2011 11.5322 -4.11427 26.9262 -20.1721C39.6068 -33.4098 55.0665 -41.783 73.0754 -45.4012C80.4059 -46.8769 87.8129 -47.3361 95.2638 -46.8332C110.592 -45.8057 124.695 -41.0397 137.638 -32.7976C141.511 -30.3272 145.22 -27.6163 148.798 -24.7414C151.38 -22.6754 153.404 -20.0847 155.724 -17.5924ZM217.683 23.1371C217.923 23.3557 218.088 23.5088 218.252 23.6509C222.147 26.8865 226.02 30.133 229.937 33.3577C232.639 35.5767 235.32 37.8286 238.11 39.9273C242.508 43.2395 247.464 44.7917 252.978 44.0156C262.891 42.6164 269.423 32.8112 267.005 23.0715C265.922 18.6772 263.558 15.059 260.123 12.1731C253.679 6.76223 247.169 1.42783 240.692 -3.92844C240.56 -4.03775 240.418 -4.11427 240.232 -4.23452C232.705 4.90393 225.232 13.9768 217.683 23.1371Z" stroke="#82DDF0" stroke-opacity="0.5" stroke-miterlimit="10"/>
</g>
<defs>
<linearGradient id="paint0_linear_618_457" x1="281.033" y1="2.59415e-06" x2="245.184" y2="115.51" gradientUnits="userSpaceOnUse">
<stop stop-opacity="0"/>
<stop offset="1"/>
</linearGradient>
</defs>
</svg>
